<mxfile host="Electron" agent="Mozilla/5.0 (Macintosh; Intel Mac OS X 10_15_7) AppleWebKit/537.36 (KHTML, like Gecko) draw.io/24.7.17 Chrome/128.0.6613.36 Electron/32.0.1 Safari/537.36" version="24.7.17">
  <diagram name="Страница — 1" id="7sNVxIf6WNisuZeVmQkq">
    <mxGraphModel dx="714" dy="497" grid="1" gridSize="10" guides="1" tooltips="1" connect="1" arrows="1" fold="1" page="1" pageScale="1" pageWidth="1169" pageHeight="827" math="0" shadow="0">
      <root>
        <mxCell id="0" />
        <mxCell id="1" parent="0" />
        <mxCell id="cXr6aa8vkX15dkyNveq5-1" value="Агент" style="shape=umlLifeline;perimeter=lifelinePerimeter;whiteSpace=wrap;html=1;container=0;dropTarget=0;collapsible=0;recursiveResize=0;outlineConnect=0;portConstraint=eastwest;newEdgeStyle={&quot;edgeStyle&quot;:&quot;elbowEdgeStyle&quot;,&quot;elbow&quot;:&quot;vertical&quot;,&quot;curved&quot;:0,&quot;rounded&quot;:0};" vertex="1" parent="1">
          <mxGeometry x="695" y="110" width="100" height="300" as="geometry" />
        </mxCell>
        <mxCell id="cXr6aa8vkX15dkyNveq5-8" value="" style="html=1;points=[];perimeter=orthogonalPerimeter;outlineConnect=0;targetShapes=umlLifeline;portConstraint=eastwest;newEdgeStyle={&quot;edgeStyle&quot;:&quot;elbowEdgeStyle&quot;,&quot;elbow&quot;:&quot;vertical&quot;,&quot;curved&quot;:0,&quot;rounded&quot;:0};" vertex="1" parent="cXr6aa8vkX15dkyNveq5-1">
          <mxGeometry x="-275" y="180" width="10" height="66" as="geometry" />
        </mxCell>
        <mxCell id="cXr6aa8vkX15dkyNveq5-9" value="" style="html=1;points=[];perimeter=orthogonalPerimeter;outlineConnect=0;targetShapes=umlLifeline;portConstraint=eastwest;newEdgeStyle={&quot;edgeStyle&quot;:&quot;elbowEdgeStyle&quot;,&quot;elbow&quot;:&quot;vertical&quot;,&quot;curved&quot;:0,&quot;rounded&quot;:0};" vertex="1" parent="cXr6aa8vkX15dkyNveq5-1">
          <mxGeometry x="45" y="180" width="10" height="66" as="geometry" />
        </mxCell>
        <mxCell id="cXr6aa8vkX15dkyNveq5-10" value="запрос на установку результата задачи&lt;div&gt;&lt;div style=&quot;font-family: Menlo, Monaco, &amp;quot;Courier New&amp;quot;, monospace; font-size: 12px; line-height: 18px; white-space-collapse: preserve;&quot;&gt;POST /internal/task&lt;/div&gt;&lt;/div&gt;" style="html=1;verticalAlign=bottom;endArrow=none;edgeStyle=elbowEdgeStyle;elbow=vertical;curved=0;rounded=0;startArrow=classic;startFill=1;endFill=0;" edge="1" parent="cXr6aa8vkX15dkyNveq5-1">
          <mxGeometry relative="1" as="geometry">
            <mxPoint x="-265" y="186" as="sourcePoint" />
            <Array as="points">
              <mxPoint x="-180" y="186" />
            </Array>
            <mxPoint x="45" y="186" as="targetPoint" />
            <mxPoint as="offset" />
          </mxGeometry>
        </mxCell>
        <mxCell id="cXr6aa8vkX15dkyNveq5-11" value="&lt;font style=&quot;font-size: 10px;&quot;&gt;ответ от оркестратора&lt;/font&gt;" style="html=1;verticalAlign=bottom;endArrow=none;edgeStyle=elbowEdgeStyle;elbow=vertical;curved=0;rounded=0;endFill=0;startArrow=classic;startFill=1;" edge="1" parent="cXr6aa8vkX15dkyNveq5-1">
          <mxGeometry relative="1" as="geometry">
            <mxPoint x="45" y="236" as="sourcePoint" />
            <Array as="points">
              <mxPoint x="-189.5" y="236" />
            </Array>
            <mxPoint x="-265" y="236" as="targetPoint" />
            <mxPoint as="offset" />
          </mxGeometry>
        </mxCell>
        <mxCell id="cXr6aa8vkX15dkyNveq5-2" value="" style="html=1;points=[];perimeter=orthogonalPerimeter;outlineConnect=0;targetShapes=umlLifeline;portConstraint=eastwest;newEdgeStyle={&quot;edgeStyle&quot;:&quot;elbowEdgeStyle&quot;,&quot;elbow&quot;:&quot;vertical&quot;,&quot;curved&quot;:0,&quot;rounded&quot;:0};" vertex="1" parent="1">
          <mxGeometry x="420" y="190" width="10" height="66" as="geometry" />
        </mxCell>
        <mxCell id="cXr6aa8vkX15dkyNveq5-3" value="" style="html=1;points=[];perimeter=orthogonalPerimeter;outlineConnect=0;targetShapes=umlLifeline;portConstraint=eastwest;newEdgeStyle={&quot;edgeStyle&quot;:&quot;elbowEdgeStyle&quot;,&quot;elbow&quot;:&quot;vertical&quot;,&quot;curved&quot;:0,&quot;rounded&quot;:0};" vertex="1" parent="1">
          <mxGeometry x="740" y="190" width="10" height="66" as="geometry" />
        </mxCell>
        <mxCell id="cXr6aa8vkX15dkyNveq5-4" value="запрос на получение задачи&lt;div&gt;&lt;div style=&quot;font-family: Menlo, Monaco, &amp;quot;Courier New&amp;quot;, monospace; font-size: 12px; line-height: 18px; white-space-collapse: preserve;&quot;&gt;GET /internal/task&lt;/div&gt;&lt;/div&gt;" style="html=1;verticalAlign=bottom;endArrow=none;edgeStyle=elbowEdgeStyle;elbow=vertical;curved=0;rounded=0;startArrow=classic;startFill=1;endFill=0;" edge="1" parent="1">
          <mxGeometry relative="1" as="geometry">
            <mxPoint x="430" y="196" as="sourcePoint" />
            <Array as="points">
              <mxPoint x="515" y="196" />
            </Array>
            <mxPoint x="740" y="196" as="targetPoint" />
            <mxPoint as="offset" />
          </mxGeometry>
        </mxCell>
        <mxCell id="cXr6aa8vkX15dkyNveq5-5" value="&lt;font style=&quot;font-size: 10px;&quot;&gt;ответ от оркестратора&lt;/font&gt;" style="html=1;verticalAlign=bottom;endArrow=none;edgeStyle=elbowEdgeStyle;elbow=vertical;curved=0;rounded=0;endFill=0;startArrow=classic;startFill=1;" edge="1" parent="1">
          <mxGeometry relative="1" as="geometry">
            <mxPoint x="740" y="246" as="sourcePoint" />
            <Array as="points">
              <mxPoint x="505.5" y="246" />
            </Array>
            <mxPoint x="430" y="246" as="targetPoint" />
            <mxPoint as="offset" />
          </mxGeometry>
        </mxCell>
        <mxCell id="cXr6aa8vkX15dkyNveq5-6" value="Оркестратор" style="shape=umlLifeline;perimeter=lifelinePerimeter;whiteSpace=wrap;html=1;container=0;dropTarget=0;collapsible=0;recursiveResize=0;outlineConnect=0;portConstraint=eastwest;newEdgeStyle={&quot;edgeStyle&quot;:&quot;elbowEdgeStyle&quot;,&quot;elbow&quot;:&quot;vertical&quot;,&quot;curved&quot;:0,&quot;rounded&quot;:0};" vertex="1" parent="1">
          <mxGeometry x="375" y="110" width="100" height="300" as="geometry" />
        </mxCell>
        <mxCell id="cXr6aa8vkX15dkyNveq5-7" value="Схема взаимодействия оркестратора и агента" style="text;html=1;align=center;verticalAlign=middle;whiteSpace=wrap;rounded=0;" vertex="1" parent="1">
          <mxGeometry x="390" y="40" width="390" height="30" as="geometry" />
        </mxCell>
      </root>
    </mxGraphModel>
  </diagram>
</mxfile>
